<svg width="83" height="39" viewBox="0 0 83 39" fill="none" xmlns="http://www.w3.org/2000/svg">
<g opacity="0.84">
<path d="M2.90102 8.89689V1.78447C2.90102 1.00324 3.75671 0.523715 4.42305 0.931538L8.22509 3.25853C8.52201 3.44026 8.70306 3.76334 8.70306 4.11146V7.89881C8.70306 8.4511 9.15078 8.89881 9.70306 8.89881H13.5051C14.0574 8.89881 14.5051 9.34653 14.5051 9.89881V13.8307C14.5051 14.383 14.0574 14.8307 13.5051 14.8307H9.70306C9.15077 14.8307 8.70306 15.2784 8.70306 15.8307V17.7957C8.70306 19.4329 9.26898 20.8318 10.4026 21.9905C11.2937 22.9013 12.3292 23.4535 13.5093 23.6481C14.0542 23.738 14.5051 24.1753 14.5051 24.7276V28.6595C14.5051 29.2118 14.0565 29.6643 13.5063 29.6165C12.3216 29.5138 11.1734 29.2268 10.0634 28.7564C8.64236 28.153 7.38912 27.296 6.30191 26.1834C5.2147 25.0708 4.37563 23.7891 3.7865 22.3364C3.19737 20.8837 2.90281 19.3695 2.90281 17.7957V15.8307C2.90281 15.2784 2.45509 14.8307 1.90281 14.8307H0.999999C0.447714 14.8307 0 14.383 0 13.8307V9.89881C0 9.34653 0.447715 8.89881 1 8.89881H2.8991C2.90016 8.89881 2.90102 8.89795 2.90102 8.89689Z" fill="white"/>
<path d="M24.1346 28.6576C24.1346 29.2099 23.6868 29.6576 23.1346 29.6576H19.3325C18.7802 29.6576 18.3325 29.2099 18.3325 28.6576V6.92998C18.3325 6.37769 18.7802 5.92998 19.3325 5.92998H23.1346C23.6868 5.92998 24.1346 6.37769 24.1346 6.92998V28.6576Z" fill="white"/>
<path d="M44.1189 28.0569C44.1189 28.0581 44.1183 28.0592 44.1173 28.0598C43.6786 28.3227 43.2275 28.5529 42.7586 28.7544C41.3375 29.3578 39.8576 29.6576 38.3169 29.6576C36.7762 29.6576 35.2945 29.3559 33.8752 28.7544C32.4542 28.1511 31.2009 27.294 30.1137 26.1814C29.0265 25.0689 28.1874 23.7872 27.5983 22.3345C27.0092 20.8817 26.7146 19.3675 26.7146 17.7938C26.7146 16.22 27.0092 14.7039 27.5983 13.2531C28.1874 11.8004 29.0265 10.5187 30.1137 9.4061C31.2009 8.29351 32.4559 7.43649 33.8752 6.83503C35.2945 6.23166 36.7762 5.93189 38.3169 5.93189C39.8576 5.93189 41.3393 6.23358 42.7586 6.83503C44.1779 7.43649 45.4329 8.29543 46.5201 9.4061C47.6073 10.5168 48.4464 11.8004 49.0355 13.2531C49.6246 14.7058 49.9192 16.2181 49.9192 17.7938V26.9815C49.9192 28.5572 49.6246 31.3244 49.0355 32.7752C48.4464 34.2279 47.6073 35.5096 46.5201 36.6222C45.4329 37.7348 43.4565 38.4377 41.9534 38.7259C39.0631 39.0031 33.9433 39.0127 30.9125 39.0001C30.0579 38.9966 29.5972 37.9865 30.1538 37.338L33.1225 33.8791C33.3124 33.6577 33.587 33.5305 33.8787 33.535C35.921 33.5666 40.9683 33.7126 42.3176 32.3678C43.5869 31.3859 43.8808 30.3558 43.8808 30.1417L44.1189 28.0569ZM38.3169 23.7257C39.9183 23.7257 41.2858 23.1473 42.4194 21.9886C43.553 20.8299 44.1189 19.4329 44.1189 17.7938C44.1189 16.1547 43.553 14.7577 42.4194 13.599C41.2858 12.4403 39.9183 11.8619 38.3169 11.8619C36.7155 11.8619 35.348 12.4403 34.2144 13.599C33.0808 14.7577 32.5149 16.1566 32.5149 17.7938C32.5149 19.431 33.0808 20.8299 34.2144 21.9886C35.348 23.1473 36.7155 23.7257 38.3169 23.7257Z" fill="white"/>
<path d="M83 28.641C83 29.1933 82.5523 29.641 82 29.641H78.198C77.6457 29.641 77.198 29.1933 77.198 28.641V6.91343C77.198 6.36115 77.6457 5.91343 78.198 5.91343H82C82.5523 5.91343 83 6.36115 83 6.91343V28.641Z" fill="white"/>
<path fill-rule="evenodd" clip-rule="evenodd" d="M68.6583 18.595C68.6583 18.5961 68.6577 18.5969 68.6567 18.5974C68.6557 18.5978 68.6554 18.5991 68.6554 18.6002V19.7038C68.6554 19.7276 68.6546 19.7512 68.6529 19.7747C68.6423 20.1278 68.4454 20.4497 68.1342 20.6197C66.5727 21.4728 65.006 22.3208 63.4355 23.1612C63.4336 23.1622 63.4315 23.1627 63.4294 23.1627C63.4273 23.1627 63.4252 23.1622 63.4234 23.1612C63.2807 23.0848 63.138 23.0083 62.9953 22.9317C62.9482 22.9144 62.9021 22.8935 62.8574 22.8689L61.9678 22.3793C60.8844 21.7956 59.8024 21.2088 58.7222 20.6185C58.4433 20.466 58.256 20.1916 58.2135 19.8819C58.2042 19.8271 58.1994 19.771 58.1994 19.7143V14.2447C58.1994 13.8782 57.9988 13.541 57.6768 13.366L54.4447 11.6098C53.7784 11.2477 52.9673 11.7301 52.9673 12.4884V20.3053C52.9673 20.418 52.9694 20.5302 52.9736 20.642C52.9736 21.3108 52.9737 21.9781 52.9801 22.6469C52.9804 22.7492 52.9806 22.8515 52.9807 22.9537C52.9818 23.6757 53.376 24.3378 54.0088 24.6855C57.1374 26.4043 60.2749 28.1085 63.4189 29.8014C63.4218 29.803 63.4252 29.8038 63.4277 29.8017L63.4289 29.8007C63.4304 29.7995 63.4323 29.7989 63.4339 29.7999C63.4375 29.802 63.4415 29.8026 63.4451 29.8007C66.5874 28.1087 69.7232 26.4054 72.85 24.6876C73.4848 24.3388 73.8787 23.6736 73.8811 22.9493C73.8815 22.8486 73.8819 22.7477 73.8826 22.6469C73.8874 21.9669 73.889 21.2884 73.889 20.6084L73.889 20.6026C73.8923 20.5043 73.8939 20.4058 73.8939 20.3069V11.8994C73.8939 11.4074 73.3677 11.0944 72.9354 11.3294L69.032 13.4506C68.8017 13.5758 68.6584 13.8168 68.6585 14.0788C68.6589 15.5931 68.6595 17.9592 68.6583 18.595Z" fill="white"/>
<path d="M58.1748 10.6799C58.1748 11.446 57.3488 11.9275 56.6822 11.5501L53.3936 9.68834C53.08 9.51084 52.8862 9.1784 52.8862 8.81811V7.11496C52.8862 6.56267 53.3339 6.11496 53.8862 6.11496H57.1748C57.7271 6.11496 58.1748 6.56267 58.1748 7.11496V10.6799Z" fill="white"/>
<path d="M68.5864 6.94971C68.5864 6.39742 69.0341 5.94971 69.5864 5.94971H72.875C73.4273 5.94971 73.875 6.39742 73.875 6.94971V8.74683C73.875 9.10311 73.6855 9.43248 73.3774 9.61147L70.0888 11.5223C69.4221 11.9096 68.5864 11.4286 68.5864 10.6576V6.94971Z" fill="white"/>
</g>
</svg>
